<mxfile host="Electron" modified="2023-09-27T18:28:28.131Z" agent="Mozilla/5.0 (X11; Linux x86_64) AppleWebKit/537.36 (KHTML, like Gecko) draw.io/21.7.5 Chrome/114.0.5735.289 Electron/25.8.1 Safari/537.36" etag="IckbnDqnNuoFfUb-e2Hs" version="21.7.5" type="device">
  <diagram name="Page-1" id="wg2142YJqt1qltAIdcRN">
    <mxGraphModel dx="1420" dy="874" grid="0" gridSize="10" guides="1" tooltips="1" connect="1" arrows="1" fold="1" page="1" pageScale="1" pageWidth="4300" pageHeight="2800" background="none" math="0" shadow="1">
      <root>
        <mxCell id="0" />
        <mxCell id="1" parent="0" />
        <mxCell id="3Q_Eg-V69YG-mrSV8kLM-5" style="edgeStyle=none;curved=1;rounded=0;orthogonalLoop=1;jettySize=auto;html=1;exitX=0.5;exitY=0;exitDx=0;exitDy=0;entryX=0.5;entryY=1;entryDx=0;entryDy=0;fontSize=12;startSize=8;endSize=8;strokeWidth=2;" edge="1" parent="1">
          <mxGeometry relative="1" as="geometry">
            <mxPoint x="150" y="148" as="sourcePoint" />
            <mxPoint x="150" y="90" as="targetPoint" />
          </mxGeometry>
        </mxCell>
        <mxCell id="3Q_Eg-V69YG-mrSV8kLM-2" value="Layer" style="rounded=1;whiteSpace=wrap;html=1;fontSize=16;" vertex="1" parent="1">
          <mxGeometry x="123" y="148" width="416" height="67" as="geometry" />
        </mxCell>
        <mxCell id="3Q_Eg-V69YG-mrSV8kLM-7" style="edgeStyle=none;curved=1;rounded=0;orthogonalLoop=1;jettySize=auto;html=1;exitX=0.5;exitY=0;exitDx=0;exitDy=0;entryX=0.5;entryY=1;entryDx=0;entryDy=0;fontSize=12;startSize=8;endSize=8;strokeWidth=2;" edge="1" parent="1">
          <mxGeometry relative="1" as="geometry">
            <mxPoint x="150" y="273" as="sourcePoint" />
            <mxPoint x="150" y="215" as="targetPoint" />
          </mxGeometry>
        </mxCell>
        <mxCell id="3Q_Eg-V69YG-mrSV8kLM-3" value="Layer" style="rounded=1;whiteSpace=wrap;html=1;fontSize=16;" vertex="1" parent="1">
          <mxGeometry x="123" y="273" width="416" height="67" as="geometry" />
        </mxCell>
        <mxCell id="3Q_Eg-V69YG-mrSV8kLM-4" value="Layer" style="rounded=1;whiteSpace=wrap;html=1;fontSize=16;" vertex="1" parent="1">
          <mxGeometry x="123" y="23" width="416" height="67" as="geometry" />
        </mxCell>
        <mxCell id="3Q_Eg-V69YG-mrSV8kLM-9" style="edgeStyle=none;rounded=1;orthogonalLoop=1;jettySize=auto;html=1;exitX=0.5;exitY=0;exitDx=0;exitDy=0;entryX=0.5;entryY=1;entryDx=0;entryDy=0;fontSize=12;startSize=8;endSize=8;strokeWidth=2;" edge="1" parent="1">
          <mxGeometry relative="1" as="geometry">
            <mxPoint x="517" y="90" as="sourcePoint" />
            <mxPoint x="517" y="148" as="targetPoint" />
          </mxGeometry>
        </mxCell>
        <mxCell id="3Q_Eg-V69YG-mrSV8kLM-10" style="edgeStyle=none;rounded=1;orthogonalLoop=1;jettySize=auto;html=1;exitX=0.5;exitY=0;exitDx=0;exitDy=0;entryX=0.5;entryY=1;entryDx=0;entryDy=0;fontSize=12;startSize=8;endSize=8;strokeWidth=2;" edge="1" parent="1">
          <mxGeometry relative="1" as="geometry">
            <mxPoint x="517" y="215" as="sourcePoint" />
            <mxPoint x="517" y="273" as="targetPoint" />
          </mxGeometry>
        </mxCell>
      </root>
    </mxGraphModel>
  </diagram>
</mxfile>
